<svg width="820" height="139" viewBox="0 0 820 139" fill="none" xmlns="http://www.w3.org/2000/svg">
<path d="M0 72H820" stroke="#C5D2CF"/>
<path d="M207.5 51V0" stroke="#C5D2CF"/>
<rect x="186.5" y="46.5" width="41" height="41" rx="8.5" fill="#DFECE9" stroke="#CFEBE4"/>
<path d="M208.767 61.3636V73H206.659V63.4148H206.591L203.869 65.1534V63.2216L206.761 61.3636H208.767Z" fill="black"/>
<path d="M613.5 56V5" stroke="#C5D2CF"/>
<rect x="592.5" y="51.5" width="41" height="41" rx="8.5" fill="#DFECE9" stroke="#CFEBE4"/>
<path d="M614.21 78.1591C613.392 78.1591 612.665 78.0189 612.028 77.7386C611.396 77.4583 610.896 77.0682 610.528 76.5682C610.161 76.0682 609.966 75.4905 609.943 74.8352H612.08C612.098 75.1496 612.203 75.4242 612.392 75.6591C612.581 75.8902 612.833 76.0701 613.148 76.1989C613.462 76.3277 613.814 76.392 614.205 76.392C614.621 76.392 614.991 76.3201 615.312 76.1761C615.634 76.0284 615.886 75.8239 616.068 75.5625C616.25 75.3011 616.339 75 616.335 74.6591C616.339 74.3068 616.248 73.9962 616.062 73.7273C615.877 73.4583 615.608 73.2481 615.256 73.0966C614.907 72.9451 614.487 72.8693 613.994 72.8693H612.966V71.2443H613.994C614.4 71.2443 614.754 71.1742 615.057 71.0341C615.364 70.8939 615.604 70.697 615.778 70.4432C615.953 70.1856 616.038 69.8883 616.034 69.5511C616.038 69.2216 615.964 68.9356 615.812 68.6932C615.665 68.447 615.455 68.2557 615.182 68.1193C614.913 67.983 614.597 67.9148 614.233 67.9148C613.877 67.9148 613.547 67.9792 613.244 68.108C612.941 68.2367 612.697 68.4205 612.511 68.6591C612.326 68.8939 612.227 69.1742 612.216 69.5H610.188C610.203 68.8485 610.39 68.2765 610.75 67.7841C611.114 67.2879 611.598 66.9015 612.205 66.625C612.811 66.3447 613.491 66.2045 614.244 66.2045C615.021 66.2045 615.695 66.3504 616.267 66.642C616.843 66.9299 617.288 67.3182 617.602 67.8068C617.917 68.2955 618.074 68.8352 618.074 69.4261C618.078 70.0814 617.884 70.6307 617.494 71.0739C617.108 71.517 616.6 71.8068 615.972 71.9432V72.0341C616.79 72.1477 617.417 72.4508 617.852 72.9432C618.292 73.4318 618.509 74.0398 618.506 74.767C618.506 75.4186 618.32 76.0019 617.949 76.517C617.581 77.0284 617.074 77.4299 616.426 77.7216C615.782 78.0133 615.044 78.1591 614.21 78.1591Z" fill="black"/>
<path d="M409.5 88L409.5 139" stroke="#C5D2CF"/>
<rect x="430.5" y="92.5" width="41" height="41" rx="8.5" transform="rotate(-180 430.5 92.5)" fill="#DFECE9" stroke="#CFEBE4"/>
<path d="M406.034 77V75.4773L410.074 71.5171C410.46 71.1269 410.782 70.7803 411.04 70.4773C411.297 70.1743 411.491 69.8807 411.619 69.5966C411.748 69.3125 411.813 69.0095 411.813 68.6875C411.813 68.3201 411.729 68.0057 411.563 67.7443C411.396 67.4792 411.167 67.2746 410.875 67.1307C410.583 66.9868 410.252 66.9148 409.881 66.9148C409.498 66.9148 409.163 66.9943 408.875 67.1534C408.587 67.3087 408.364 67.5303 408.205 67.8182C408.049 68.1061 407.972 68.4489 407.972 68.8466H405.966C405.966 68.108 406.135 67.4659 406.472 66.9205C406.809 66.375 407.273 65.9527 407.864 65.6534C408.458 65.3542 409.14 65.2046 409.909 65.2046C410.689 65.2046 411.375 65.3504 411.966 65.6421C412.557 65.9337 413.015 66.3333 413.341 66.8409C413.671 67.3485 413.835 67.928 413.835 68.5796C413.835 69.0152 413.752 69.4432 413.585 69.8636C413.419 70.2841 413.125 70.75 412.705 71.2614C412.288 71.7727 411.703 72.3921 410.949 73.1193L408.943 75.1591V75.2386H414.011V77H406.034Z" fill="black"/>
</svg>
